<svg width="104" height="104" viewBox="0 0 104 104" fill="none" xmlns="http://www.w3.org/2000/svg">
<rect width="104" height="104" rx="12" fill="black"/>
<path d="M56 8.3457H55V9.3457V47.6543V48.6543H56H92H93V47.6543V42.5V41.5H92H62.7988V9.3457V8.3457H61.7988H56Z" fill="white" stroke="white" stroke-width="2"/>
<path d="M12 8.3457H11V9.3457V47.6543V48.6543H12H48H49V47.6543V42.5V41.5H48H18.7988V9.3457V8.3457H17.7988H12Z" fill="white" stroke="white" stroke-width="2"/>
<path d="M19.3561 87.5658L19.3414 87.5582L19.3265 87.5512C18.5058 87.1613 17.7893 85.9256 17.7893 82.9536V55.6961V54.6961H16.7893H12H11V55.6961V82.9536C11 85.6394 11.234 87.8795 11.7307 89.6415C12.2248 91.3941 13.0113 92.7858 14.2033 93.6115L14.2061 93.6134C15.3482 94.3988 17.2966 94.8932 19.8358 95.2117C22.4284 95.5368 25.8138 95.6961 29.9771 95.6961C34.1607 95.6961 37.5737 95.5276 40.2011 95.1835C42.78 94.8458 44.7619 94.3219 45.9457 93.5016C47.0997 92.7045 47.8446 91.3268 48.3095 89.6032C48.7789 87.8633 49 85.636 49 82.9536V55.6961V54.6961H48H43.2107H42.2107V55.6961V82.9536C42.2107 84.3905 42.0441 85.4662 41.7587 86.2275C41.4787 86.9744 41.1087 87.3621 40.7115 87.5549L40.6996 87.5607L40.6877 87.5668C40.1906 87.8248 39.094 88.0829 37.229 88.2615C35.4121 88.4355 32.9985 88.5244 29.9771 88.5244C26.9903 88.5244 24.6018 88.4356 22.8005 88.2616C20.9527 88.0832 19.8591 87.8253 19.3561 87.5658Z" fill="white" stroke="white" stroke-width="2"/>
<path d="M63.0972 55.6411L62.8186 54.8918H62.0192H56H54.85V56.0418V94.3504V95.5004H56H59.3727H60.5227V94.3504V65.7834L71.5874 94.7606L71.8699 95.5004H72.6618H74.7757H75.5676L75.8501 94.7606L86.9471 65.6989V94.3504V95.5004H88.0971H91.4295H92.5795V94.3504V56.0418V54.8918H91.4295H85.4183H84.6189L84.3404 55.6411L73.7188 84.2141L63.0972 55.6411Z" fill="white" stroke="white" stroke-width="2.3"/>
</svg>
