<svg width="128" height="128" viewBox="0 0 128 128" fill="none" xmlns="http://www.w3.org/2000/svg">
<rect width="128" height="128" rx="24" fill="white"/>
<path d="M82.6292 63.2381C85.1792 59.5768 86.6667 55.1156 86.6667 50.2812C86.6667 37.7154 76.5198 27.5312 64 27.5312C51.4802 27.5312 41.3333 37.7154 41.3333 50.2812C41.3333 55.1156 42.8208 59.5768 45.3708 63.2381C46.026 64.1801 46.8052 65.2465 47.6375 66.384C49.9219 69.5299 52.649 73.2979 54.6854 77.0125C56.5271 80.3895 57.4656 83.9086 57.926 87.2322H49.3021C48.9125 85.0994 48.2573 83.0199 47.2125 81.1004C45.4594 77.9012 43.2812 74.8975 41.1031 71.8938C40.1823 70.6318 39.2615 69.3699 38.376 68.0902C34.8875 63.0604 32.8333 56.9107 32.8333 50.2812C32.8333 33.0055 46.7875 19 64 19C81.2125 19 95.1667 33.0055 95.1667 50.2812C95.1667 56.9107 93.1125 63.0603 89.6062 68.108C88.7208 69.3877 87.8 70.6496 86.8792 71.9115C84.701 74.8975 82.5229 77.9012 80.7698 81.1182C79.725 83.0377 79.0698 85.1172 78.6802 87.25H70.0917C70.5521 83.9264 71.4906 80.3895 73.3323 77.0303C75.3687 73.3156 78.0958 69.5477 80.3802 66.4018C81.2125 65.2643 81.974 64.1979 82.6292 63.2559V63.2381ZM64 41.75C59.3073 41.75 55.5 45.5713 55.5 50.2812C55.5 51.8453 54.225 53.125 52.6667 53.125C51.1083 53.125 49.8333 51.8453 49.8333 50.2812C49.8333 42.4254 56.1729 36.0625 64 36.0625C65.5583 36.0625 66.8333 37.3422 66.8333 38.9062C66.8333 40.4703 65.5583 41.75 64 41.75ZM64 110C56.1729 110 49.8333 103.637 49.8333 95.7812V92.9375H78.1667V95.7812C78.1667 103.637 71.8271 110 64 110Z" fill="#1E293B"/>
</svg>
