<svg width="104" height="104" viewBox="0 0 104 104" fill="none" xmlns="http://www.w3.org/2000/svg">
<rect width="104" height="104" rx="16" fill="#1E293B"/>
<path d="M52.0692 93.0625V53.8625H58.5652L64.2212 75.3665C64.3705 75.9265 64.5479 76.5892 64.7532 77.3545C64.9585 78.1012 65.0985 78.7265 65.1732 79.2305C65.2665 78.7265 65.4065 78.1012 65.5932 77.3545C65.7985 76.5892 65.9759 75.9265 66.1252 75.3665L71.9492 53.8625H78.0532V93.0625H72.2852V71.7825C72.2852 71.3532 72.2852 70.8025 72.2852 70.1305C72.3039 69.4585 72.3412 68.9265 72.3972 68.5345C72.2292 69.0012 72.0425 69.5238 71.8372 70.1025C71.6505 70.6812 71.4825 71.2412 71.3332 71.7825L65.3412 93.0625H64.7812L58.7892 71.7825C58.6399 71.2412 58.4625 70.6812 58.2572 70.1025C58.0705 69.5052 57.8932 68.9825 57.7252 68.5345C57.7625 68.9265 57.7905 69.4585 57.8092 70.1305C57.8279 70.8025 57.8372 71.3532 57.8372 71.7825V93.0625H52.0692Z" fill="white"/>
<path d="M25.256 93.0625V53.8625H31.92V86.6785H50.008V93.0625H25.256Z" fill="white"/>
<path d="M25.256 52V12.8H31.92V45.616H50.008V52H25.256Z" fill="white"/>
<path d="M65.0612 52.672C62.7092 52.672 60.5252 52.1773 58.5092 51.188C56.5119 50.1987 54.8972 48.5653 53.6652 46.288C52.4519 44.0107 51.8452 40.9307 51.8452 37.048V12.8H58.4532V37.048C58.4532 39.456 58.7332 41.332 59.2932 42.676C59.8719 44.02 60.6559 44.972 61.6452 45.532C62.6532 46.0733 63.7919 46.344 65.0612 46.344C66.3119 46.344 67.4319 46.0733 68.4212 45.532C69.4292 44.972 70.2225 44.02 70.8012 42.676C71.3799 41.332 71.6692 39.456 71.6692 37.048V12.8H78.3332V37.048C78.3332 40.8747 77.7265 43.936 76.5132 46.232C75.2999 48.5093 73.6852 50.152 71.6692 51.16C69.6532 52.168 67.4505 52.672 65.0612 52.672Z" fill="white"/>
</svg>
