<svg width="104" height="104" viewBox="0 0 104 104" fill="none" xmlns="http://www.w3.org/2000/svg">
<rect width="104" height="104" rx="12" fill="black"/>
<path d="M52.0692 93V53.8H58.5652L64.2212 75.304C64.3705 75.864 64.5479 76.5267 64.7532 77.292C64.9585 78.0387 65.0985 78.664 65.1732 79.168C65.2665 78.664 65.4065 78.0387 65.5932 77.292C65.7985 76.5267 65.9759 75.864 66.1252 75.304L71.9492 53.8H78.0532V93H72.2852V71.72C72.2852 71.2907 72.2852 70.74 72.2852 70.068C72.3039 69.396 72.3412 68.864 72.3972 68.472C72.2292 68.9387 72.0425 69.4613 71.8372 70.04C71.6505 70.6187 71.4825 71.1787 71.3332 71.72L65.3412 93H64.7812L58.7892 71.72C58.6399 71.1787 58.4625 70.6187 58.2572 70.04C58.0705 69.4427 57.8932 68.92 57.7252 68.472C57.7625 68.864 57.7905 69.396 57.8092 70.068C57.8279 70.74 57.8372 71.2907 57.8372 71.72V93H52.0692Z" fill="white"/>
<path d="M24.256 93V53.8H30.92V86.616H49.008V93H24.256Z" fill="white"/>
<path d="M24.256 51V11.8H30.92V44.616H49.008V51H24.256Z" fill="white"/>
<path d="M65.0612 51.672C62.7092 51.672 60.5252 51.1773 58.5092 50.188C56.5119 49.1987 54.8972 47.5653 53.6652 45.288C52.4519 43.0107 51.8452 39.9307 51.8452 36.048V11.8H58.4532V36.048C58.4532 38.456 58.7332 40.332 59.2932 41.676C59.8719 43.02 60.6559 43.972 61.6452 44.532C62.6532 45.0733 63.7919 45.344 65.0612 45.344C66.3119 45.344 67.4319 45.0733 68.4212 44.532C69.4292 43.972 70.2225 43.02 70.8012 41.676C71.3799 40.332 71.6692 38.456 71.6692 36.048V11.8H78.3332V36.048C78.3332 39.8747 77.7265 42.936 76.5132 45.232C75.2999 47.5093 73.6852 49.152 71.6692 50.16C69.6532 51.168 67.4505 51.672 65.0612 51.672Z" fill="white"/>
</svg>
